<?xml version="1.0" encoding="utf-8"?>
<!-- Generator: Adobe Illustrator 23.0.3, SVG Export Plug-In . SVG Version: 6.00 Build 0)  -->
<svg version="1.1" id="hextech-stat-health" xmlns="http://www.w3.org/2000/svg" xmlns:xlink="http://www.w3.org/1999/xlink"
	 x="0px" y="0px" viewBox="0 0 32 32" style="enable-background:new 0 0 32 32;" xml:space="preserve">
<style type="text/css">
	.st0{fill:#efe7d4;}
</style>
<title>stat-range</title>
<path class="st0" d="M20 7.333 2 30l22.667-18 .025-.05A30.175 30.175 0 0 1 29.333 20V2.667H12a30.187 30.187 0 0 1 8.05 4.641l-.05.025z"></path><path class="st0" d="m13.754 9.839-1.678 2.113A20.57 20.57 0 0 0 2 9.334V6.667c4.286 0 8.302 1.156 11.754 3.172zm-7.193 9.058 1.713-2.158A14.602 14.602 0 0 0 2 15.333V18c1.615 0 3.155.319 4.561.897zm15.6-.651-2.113 1.678A20.57 20.57 0 0 1 22.666 30h2.667c0-4.286-1.156-8.302-3.172-11.754zm-6.9 5.48-2.158 1.714c.578 1.406.897 2.946.897 4.561h2.667c0-2.245-.504-4.372-1.406-6.274z"></path>
</svg>